# xmcd CD database file
#
# Track frame offsets:
#	150
#	12759
#	29655
#	47212
#	61660
#	80466
#	99637
#	110816
#	128193
#	145327
#	161916
#	178127
#
# Disc length: 2614 seconds
#
# Revision: 0
# Processed by: cddbd v1.5.2PL0 Copyright (c) Steve Scherf et al.
# Submitted via: CDex 1.51
#
DISCID=a90a340c
DTITLE=Goddamn Electric Bill - Jazz
DYEAR=2010
DGENRE=Jazz
TTITLE0=Birth Of A Star
TTITLE1=Pull The Lever
TTITLE2=The End Of 2008
TTITLE3=End Credits
TTITLE4=1780
TTITLE5=Sin
TTITLE6=Northwestern
TTITLE7=Spectacle Rock
TTITLE8=Hibiscus
TTITLE9=The Slide
TTITLE10=Half-Awake
TTITLE11=Fairytale Orchestra
EXTD=YEAR: 2010
EXTT0=
EXTT1=
EXTT2=
EXTT3=
EXTT4=
EXTT5=
EXTT6=
EXTT7=
EXTT8=
EXTT9=
EXTT10=
EXTT11=
PLAYORDER=
